<svg xmlns="http://www.w3.org/2000/svg" viewBox="0 0 24 24" width="24" height="24">
  <path d="M12 4C10.5 4 9 5 8.5 6.5C7 6 5 7 4.5 9C4 10.5 4.5 12 5.5 13L4 16C3.5 17 4 18.5 5.5 19C6.5 19.5 7.5 19 8 18.5L9 17C10 17.5 11 17.5 12 17.5C13 17.5 14 17.5 15 17L16 18.5C16.5 19 17.5 19.5 18.5 19C20 18.5 20.5 17 20 16L18.5 13C19.5 12 20 10.5 19.5 9C19 7 17 6 15.5 6.5C15 5 13.5 4 12 4Z" fill="currentColor"/>
  <circle cx="10" cy="10.5" r="1" fill="white"/>
  <circle cx="14" cy="10.5" r="1" fill="white"/>
</svg>
